<?xml version="1.0" encoding="iso-8859-1"?>
<!-- Generator: Adobe Illustrator 19.0.0, SVG Export Plug-In . SVG Version: 6.00 Build 0)  -->
<svg version="1.1" id="Layer_1" xmlns="http://www.w3.org/2000/svg" xmlns:xlink="http://www.w3.org/1999/xlink" x="0px" y="0px"
	 viewBox="0 0 491.52 491.52" style="enable-background:new 0 0 491.52 491.52;" xml:space="preserve">
<path style="fill:#3A556A;" d="M401.304,10.708H90.217c-12.191,0-22.074,9.883-22.074,22.073v436.665
	c0,12.19,9.883,22.073,22.074,22.073h311.087c12.191,0,22.073-9.883,22.073-22.073V32.782
	C423.377,20.591,413.494,10.708,401.304,10.708z"/>
<path style="fill:#64798A;" d="M401.304,0H90.217C78.026,0,68.143,9.883,68.143,22.073v436.665c0,12.19,9.883,22.073,22.074,22.073
	h311.087c12.191,0,22.073-9.883,22.073-22.073V22.073C423.377,9.883,413.494,0,401.304,0z"/>
<rect x="103.424" y="27.095" style="fill:#44C4A1;" width="284.713" height="116.997"/>
<rect x="103.424" y="127.857" style="fill:#3EA69B;" width="284.713" height="16.23"/>
<rect x="103.424" y="169.011" style="fill:#FCD462;" width="131.282" height="131.282"/>
<rect x="256.819" y="169.011" style="fill:#27A2DB;" width="131.282" height="131.282"/>
<rect x="103.424" y="281.907" style="fill:#F6C358;" width="131.282" height="18.381"/>
<rect x="256.819" y="281.907" style="fill:#2D93BA;" width="131.282" height="18.381"/>
<rect x="103.424" y="322.437" style="fill:#E56353;" width="131.282" height="131.282"/>
<rect x="256.819" y="322.437" style="fill:#EBF0F3;" width="131.282" height="131.282"/>
<rect x="103.424" y="435.354" style="fill:#D15241;" width="131.282" height="18.381"/>
<g>
	<rect x="130.038" y="229.181" style="fill:#DC8744;" width="78.013" height="10.926"/>
	<rect x="163.579" y="195.635" style="fill:#DC8744;" width="10.926" height="78.013"/>
</g>
<g transform="matrix(0.70711 -0.70711 0.70711 0.70711 -44.754 47.546)">
	<rect x="-95.076" y="352.974" style="fill:#FFFFFF;" width="10.926" height="78.013"/>
	<rect x="-128.617" y="386.51" style="fill:#FFFFFF;" width="78.013" height="10.926"/>
</g>
<g>
	<rect x="283.494" y="361.882" style="fill:#64798A;" width="78.013" height="10.926"/>
	<rect x="283.494" y="403.354" style="fill:#64798A;" width="78.013" height="10.926"/>
</g>
<rect x="283.494" y="229.181" style="fill:#FFFFFF;" width="78.013" height="10.926"/>
<rect x="256.819" y="435.354" style="fill:#E1E6E9;" width="131.282" height="18.381"/>
<g>
</g>
<g>
</g>
<g>
</g>
<g>
</g>
<g>
</g>
<g>
</g>
<g>
</g>
<g>
</g>
<g>
</g>
<g>
</g>
<g>
</g>
<g>
</g>
<g>
</g>
<g>
</g>
<g>
</g>
</svg>
