<?xml version="1.0" encoding="iso-8859-1"?>
<!-- Generator: Adobe Illustrator 19.0.0, SVG Export Plug-In . SVG Version: 6.00 Build 0)  -->
<svg version="1.1" id="Capa_1" xmlns="http://www.w3.org/2000/svg" xmlns:xlink="http://www.w3.org/1999/xlink" x="0px" y="0px"
	 viewBox="0 0 341.6 341.6" style="enable-background:new 0 0 341.6 341.6;" xml:space="preserve">
<g>
	<rect x="22.4" y="140.5" style="fill:#00041B;" width="14" height="81.6"/>
	<circle style="fill:#00041B;" cx="29.6" cy="227.3" r="19.2"/>
	<polygon style="fill:#00041B;" points="29.6,221.7 4.8,300.9 54.4,300.9 	"/>
</g>
<path style="fill:#FFAE09;" d="M63.6,159.7v85.6c0,0,35.2,49.6,107.2,49.6c72.4,0,107.2-49.6,107.2-49.6v-85.6"/>
<path style="fill:#00041B;" d="M170.8,300.9c-74.4,0-110.8-50-112.4-52c-0.8-1.2-1.2-2.4-1.2-3.6v-85.6c0-3.6,2.8-6,6-6
	c3.6,0,6,2.8,6,6v83.6c6.4,8,40,45.6,101.2,45.6s94.8-37.6,101.2-45.6v-83.6c0-3.6,2.8-6,6-6c3.6,0,6,2.8,6,6v85.6
	c0,1.2-0.4,2.4-1.2,3.6C281.6,250.9,245.2,300.9,170.8,300.9z"/>
<path style="fill:#059DBF;" d="M191.6,202.9c-10.4,5.2-27.6,5.2-38.4,0L14,135.7c-10.4-5.2-10.4-13.2,0-18.4l139.6-66.8
	c10.4-5.2,27.6-4.8,38.4,0l136,66.8c10.4,5.2,10.4,13.6,0,18.8L191.6,202.9z"/>
<g>
	<path style="fill:#00041B;" d="M172.4,212.9c-8,0-15.6-1.6-21.6-4.4L11.2,141.3C1.2,136.5,0,130.1,0,126.5s1.6-10,11.2-14.8
		l139.6-66.8c12-5.6,32-5.6,43.6,0l136,66.8c10,4.8,11.2,11.2,11.2,14.8s-1.6,10-11.2,14.8l-136,66.8
		C188.4,211.3,180.4,212.9,172.4,212.9z M172.4,52.9c-6,0-12,1.2-16.4,3.2L16.4,122.9c-3.6,1.6-4.4,3.2-4.4,3.6c0,0.4,0.8,2,4.4,3.6
		L156,196.9c8.4,4,24.4,4,32.8,0l136-66.8c3.2-1.6,4.4-3.2,4.4-4c0-0.4-1.2-2-4.4-4l-136-66.8C184.8,54.1,178.8,52.9,172.4,52.9z"/>
	<path style="fill:#00041B;" d="M29.6,149.7c-3.2,0-5.6-2.4-6-5.6c-0.4-3.2,2-6.4,5.2-6.8L170,120.5c3.2-0.4,6.4,2,6.8,5.6
		c0.4,3.2-2,6.4-5.2,6.8L30.4,149.7C30,149.7,29.6,149.7,29.6,149.7z"/>
</g>
<g>
</g>
<g>
</g>
<g>
</g>
<g>
</g>
<g>
</g>
<g>
</g>
<g>
</g>
<g>
</g>
<g>
</g>
<g>
</g>
<g>
</g>
<g>
</g>
<g>
</g>
<g>
</g>
<g>
</g>
</svg>
