<svg id="Capa_1" enable-background="new 0 0 511.973 511.973" height="512" viewBox="0 0 511.973 511.973" width="512" xmlns="http://www.w3.org/2000/svg"><g><g><path clip-rule="evenodd" d="m256.015 163.842 7.605 46.69 36.334 39.306 58.944-173.853c2.914-8.576 9.44-44.394-13.84-65.238-6.993-6.28-9.149-2.035-12.442 3.111z" fill="#dddaec" fill-rule="evenodd"/></g><g><path clip-rule="evenodd" d="m183.61 305.628 41.375 21.048 17.919-35.09c3.496-28.665-12.15-53.348-30.827-41.719z" fill="#dddaec" fill-rule="evenodd"/></g><g><path clip-rule="evenodd" d="m292.961 182.477-23.222-45.498-13.724 26.863 43.939 85.996 58.944-173.853c2.389-7.065 7.255-32.59-4.108-53.028-.612 3.838-1.369 6.832-1.981 8.635l-49.096 142.018c-4.4 12.763-4.604 20.874-10.752 8.867z" fill="#beb9dd" fill-rule="evenodd"/></g><g><path clip-rule="evenodd" d="m223.149 282.486-11.072-32.619-8.945 17.531 11.043 32.619c3.118 9.187 10.373 13.315 18.589 9.71l1.165-.611 8.974-17.531-1.165.581c-8.246 3.636-15.472-.522-18.589-9.68z" fill="#beb9dd" fill-rule="evenodd"/></g><g><path clip-rule="evenodd" d="m137.893 362.784c18.735 9.536 26.165 32.387 16.608 51.08l-16.404 32.154c-9.557 18.694-32.459 26.107-51.194 16.6-18.735-9.536-26.165-32.387-16.637-51.08l16.433-32.154c9.557-18.693 32.459-26.106 51.194-16.6zm-84.934-.523-16.404 32.096c-19.027 37.271-4.167 82.885 33.187 101.87 10.781 5.495 22.29 8.14 33.624 8.257h1.544c27.36-.262 53.642-15.35 66.928-41.341l16.375-32.125 44.929-87.944c2.739-5.349.583-11.949-4.778-14.682l-3.38-1.715-41.375-21.048-3.409-1.715c-5.332-2.704-11.946-.581-14.685 4.768l-10.46 20.496c-37.354-18.986-83.07-4.188-102.096 33.083z" fill="#eb5468" fill-rule="evenodd"/></g><g><path clip-rule="evenodd" d="m278.859 342.957 44.9 87.973 16.404 32.096c19.027 37.271 64.743 52.098 102.097 33.113 37.354-19.013 52.185-64.599 33.158-101.87l-16.404-32.096c-19.027-37.271-64.714-52.098-102.067-33.113l-10.46-20.467c-2.739-5.349-9.353-7.501-14.714-4.768l-3.38 1.715-41.375 21.019-3.409 1.744c-5.333 2.705-7.489 9.305-4.75 14.654zm78.612 70.791c-9.557-18.694-2.098-41.544 16.637-51.051 18.735-9.536 41.637-2.122 51.194 16.571l16.404 32.154c9.557 18.723 2.098 41.544-16.637 51.08s-41.637 2.093-51.165-16.6z" fill="#eb5468" fill-rule="evenodd"/></g><g><path clip-rule="evenodd" d="m299.954 249.838-43.939-85.996-76.63-150.101c-3.292-5.117-5.449-9.39-12.471-3.111-23.281 20.845-16.725 56.691-13.84 65.238l59.003 173.998 11.072 32.619c3.118 9.158 10.344 13.315 18.589 9.681l1.165-.581 13.665-6.948c3.934-2.006 8.799-.436 10.81 3.489l19.638 38.434 41.375-21.019zm-43.968-.262v.087-.087-.116z" fill="#f9f7f8" fill-rule="evenodd"/></g><g><path clip-rule="evenodd" d="m256.015 163.842-76.63-150.101c-3.292-5.117-5.449-9.39-12.471-3.111-3.963 3.547-7.051 7.53-9.44 11.716.408.611.787 1.25 1.224 1.919l149.007 291.799 20.687-10.524-28.438-55.703z" fill="#dddaec" fill-rule="evenodd"/></g><g><path clip-rule="evenodd" d="m452.895 489.569c29.37-21.601 39.627-61.808 22.523-95.299l-16.404-32.096c-19.027-37.271-64.714-52.098-102.067-33.113l-10.46-20.467c-2.739-5.349-9.353-7.501-14.714-4.768l-3.38 1.715-12.179 6.192 8.654 16.891c7.663 14.914 12.296 30.061 26.719 23.781 50.699-22.095 81.06-10.233 106.759 53.377 10.254 20.118 15.761 53.901-5.451 83.787z" fill="#e5384f" fill-rule="evenodd"/></g><g><path clip-rule="evenodd" d="m233.143 343.073c2.739-5.349.583-11.949-4.778-14.682l-3.38-1.715-17.628-8.954c5.303 2.733 7.43 9.303 4.72 14.623l-44.929 87.973-16.404 32.096c-17.191 33.695-56.206 49.045-91.112 37.649 3.147 2.268 6.527 4.332 10.111 6.163 10.781 5.495 22.29 8.14 33.624 8.257h.029 1.486.029c27.36-.262 53.642-15.35 66.928-41.341l16.375-32.125z" fill="#e5384f" fill-rule="evenodd"/></g><g><path d="m263.183 247.276c-.024-.081-.048-.16-.074-.24-.031-.09-.064-.179-.098-.267-1.061-2.842-3.801-4.853-7.024-4.853-4.033 0-7.312 3.227-7.484 7.219-.004.067-.008.134-.01.201-.001.042-.006.082-.006.123v.116c0 .015.002.029.002.044s-.002.029-.002.044c0 .057.007.113.009.169.003.096.008.191.014.286.237 3.929 3.488 7.044 7.477 7.044 3.792 0 6.918-2.816 7.421-6.469.197-1.173.105-2.337-.225-3.417z"/><path d="m367.222 449.308c8.03 15.754 24.048 24.835 40.643 24.834 6.949 0 14.001-1.593 20.607-4.956 10.866-5.531 18.919-14.945 22.673-26.506 3.746-11.534 2.766-23.846-2.758-34.666l-16.407-32.16c-11.414-22.326-38.9-31.228-61.273-19.841-10.86 5.514-18.91 14.916-22.669 26.478-3.752 11.542-2.773 23.855 2.755 34.671zm-4.919-62.18c2.518-7.746 7.916-14.046 15.199-17.743.003-.001.006-.002.009-.004 4.438-2.259 9.173-3.329 13.843-3.329 11.129 0 21.876 6.079 27.268 16.624l16.405 32.156c3.701 7.25 4.358 15.495 1.852 23.215-2.516 7.748-7.918 14.059-15.211 17.771-15.01 7.641-33.441 1.666-41.084-13.33l-16.435-32.155c-3.702-7.239-4.358-15.481-1.846-23.205z"/><path d="m482.097 390.857-16.403-32.093c-19.727-38.642-65.749-55.344-105.322-39.483l-7.209-14.105c-4.051-7.911-13.077-11.658-21.326-9.381l-23.765-46.539 57.928-170.858c3.985-11.729 9.611-50.361-15.931-73.231-1.593-1.431-6.439-5.783-12.452-4.955-5.722.788-8.702 5.484-10.879 8.913l-.438.691c-.131.204-.252.415-.362.63l-69.913 136.887-69.96-137.003c-.113-.222-.238-.438-.373-.648l-.461-.721c-2.173-3.407-5.149-8.073-10.861-8.858-6.012-.824-10.861 3.511-12.458 4.94-25.483 22.816-19.907 61.479-15.94 73.234l57.991 170.989-23.805 46.629c-8.25-2.275-17.276 1.47-21.323 9.375l-7.208 14.124c-39.593-15.869-85.624.822-105.348 39.454l-16.405 32.099c-10.105 19.796-11.888 42.338-5.017 63.475 6.882 21.171 21.615 38.393 41.485 48.491 12.098 6.148 25.007 9.061 37.734 9.061 30.391 0 59.732-16.609 74.442-45.424l31.405-61.508c1.887-3.688.427-8.207-3.261-10.093-3.688-1.885-8.207-.426-10.093 3.262l-31.413 61.523c-17.114 33.526-58.396 46.895-92.019 29.808-16.295-8.281-28.375-22.4-34.018-39.756-5.63-17.321-4.17-35.794 4.11-52.014l16.405-32.099c17.115-33.525 58.396-46.896 92.019-29.809 3.687 1.874 8.197.409 10.079-3.276l10.456-20.488c.847-1.652 2.962-2.336 4.61-1.499l48.157 24.475c1.098.56 1.538 1.498 1.703 2.007.162.501.354 1.503-.2 2.583l-16.025 31.398c-1.883 3.689-.418 8.207 3.271 10.09 3.688 1.883 8.206.419 10.09-3.271l16.021-31.389c2.235-4.365 2.631-9.348 1.114-14.031-1.13-3.491-3.221-6.494-6.024-8.727l13.572-26.578 11.496-5.837c.247-.127.602-.016.728.227l16.389 32.075c-2.796 2.219-4.886 5.214-6.019 8.7-1.524 4.69-1.131 9.681 1.104 14.045l16.084 31.515c1.884 3.69 6.4 5.154 10.09 3.271s5.154-6.4 3.271-10.089l-16.089-31.523c-.55-1.075-.357-2.08-.194-2.583.163-.501.595-1.422 1.667-1.966l48.171-24.483c1.657-.847 3.781-.158 4.63 1.499l10.46 20.467c1.883 3.683 6.391 5.145 10.077 3.273 33.605-17.08 74.871-3.695 91.99 29.84l16.403 32.093c8.288 16.235 9.744 34.72 4.101 52.049-5.643 17.331-17.712 31.439-33.978 39.725-33.618 17.084-74.897 3.701-92.02-29.841l-29.013-56.908c-1.876-3.693-6.389-5.165-10.084-3.289-3.693 1.876-5.165 6.391-3.289 10.083l29.027 56.936c14.716 28.827 44.062 45.445 74.459 45.444 12.722 0 25.629-2.912 37.722-9.057 19.839-10.106 34.555-27.312 41.438-48.449 6.89-21.148 5.113-43.704-5.001-63.518zm-142.962-373.272.269-.422c.179-.281.375-.59.574-.898.025.023.052.046.078.07 19.855 17.779 14.312 49.671 11.74 57.243l-53.243 157.039-34.106-66.79zm-128.45 251.502 5.364 15.817c2.348 6.896 6.706 12.04 12.271 14.484.601.264 1.212.489 1.828.688l-8.436 16.521-28.007-14.248zm63.369 15.619c-2.746-5.36-8.208-8.447-13.857-8.447-2.37 0-4.774.544-7.023 1.691l-14.623 7.425c-1.64.69-3.049.783-4.199.278-1.645-.722-3.14-2.758-4.1-5.576l-70.072-206.606c-2.559-7.583-8.064-39.524 11.734-57.25.032-.029.064-.058.097-.086.199.307.396.614.573.893l.287.449 145.423 284.782-28.002 14.227-16.234-31.771c-.001-.004-.003-.006-.004-.009z"/><path d="m141.296 356.1c-.003-.001-.006-.003-.009-.004-22.374-11.354-49.858-2.439-61.267 19.875l-16.438 32.162c-5.519 10.83-6.488 23.153-2.729 34.702 3.76 11.549 11.803 20.949 22.655 26.472 6.596 3.347 13.635 4.933 20.576 4.933 16.605 0 32.646-9.074 40.691-24.813l16.401-32.148c5.531-10.818 6.515-23.133 2.771-34.678-3.749-11.563-11.794-20.974-22.651-26.501zm6.524 54.356-16.401 32.148c-7.653 14.969-26.101 20.948-41.113 13.331-7.274-3.703-12.669-10.004-15.188-17.744-2.518-7.734-1.867-15.991 1.827-23.239l16.433-32.153c5.396-10.555 16.156-16.639 27.301-16.639 4.661 0 9.392 1.065 13.822 3.313 7.277 3.708 12.669 10.013 15.181 17.757 2.506 7.728 1.846 15.974-1.862 23.226z"/></g></g></svg>